<svg id="Layer_1" data-name="Layer 1" xmlns="http://www.w3.org/2000/svg" viewBox="0 0 169.38 166.83"><defs><style>.cls-1{fill:#78992b;}</style></defs><polygon class="cls-1" points="140.79 104.88 160.35 145.12 141.21 158.55 124.8 158.03 113.83 151.3 112.97 127.08 95.18 86.64 57.67 62.71 41.37 23.54 39.75 0 32.73 10.56 15.25 11.62 10.77 16.05 0 18.05 1.58 33.12 14.62 38.19 21.15 49.94 21.21 63.99 15.86 79.31 22.31 110.78 9.6 160.87 1.04 166.83 15.12 166.83 36.58 117.66 40.21 118.67 37.86 161.35 30.62 166.83 44.04 166.83 51.07 140.74 73.92 160.64 64.2 159.66 59.5 166.83 104.96 166.83 109.41 162.27 122.83 166.83 144.39 166.83 169.38 146.92 140.79 104.88"/></svg>