<svg id="Layer_1" data-name="Layer 1" xmlns="http://www.w3.org/2000/svg" viewBox="0 0 251.98 221.28">
<defs>
<style>.cls-1{fill:#78992b;}</style>
</defs>
<polygon class="cls-1" points="240.24 41.89 241.98 26.58 235.31 12.34 249.4 0 224.66 1.58 178.62 19.38 132.78 64.53 88.17 103.11 35.88 200.57 16.4 192.6 15 159.12 41.73 117.31 0 156.62 1.38 203.96 37.38 221.28 144.78 221.28 135.91 209.85 119.79 211.49 143.5 184.52 154.47 221.28 190.08 221.28 181.24 211.08 179.08 202.85 182.02 149.67 195.32 112.79 195.32 86.34 201.67 64.42 209.45 61.22 232.41 72.35 251.98 65.67 240.24 41.89"/>
</svg>