<svg xmlns="http://www.w3.org/2000/svg" viewBox="0 0 597 597"><defs><style>.cls-1{fill:#80a41b;}.cls-2{fill:#12293a;}.cls-3{fill:#fff;}</style></defs><g id="Circle_backgrounds" data-name="Circle backgrounds"><circle class="cls-1" cx="298.5" cy="298.5" r="298.5"/></g><g id="Layer_1" data-name="Layer 1"><path class="cls-2" d="M212.82,484.23A126.82,126.82,0,1,1,339.63,357.42,127,127,0,0,1,212.82,484.23Zm0-243.63A116.82,116.82,0,1,0,329.63,357.42,116.95,116.95,0,0,0,212.82,240.6Z"/><path class="cls-3" d="M479.07,88.88c-.15-.34-.75-.83-.91-.46l.75,1.12Z"/><path class="cls-3" d="M475.58,88.9a3.91,3.91,0,0,0,1.65,2.57c-.59-1.2-.15-.9-.89-2.29.15-.37.76-.16,1.06.23-.15-.33.61-.2.16-.93-1.06-.38-1.52,0-1.37,1.06C475.88,89.43,475.73,89.1,475.58,88.9Z"/><path class="cls-3" d="M448.64,112.93l.27-.06A.42.42,0,0,0,448.64,112.93Z"/><path class="cls-3" d="M432.33,128.2a.28.28,0,0,0,0-.37C432.26,128,432.23,128.15,432.33,128.2Z"/><path class="cls-3" d="M428.61,129.87l.22-.1C428.68,129.75,428.57,129.76,428.61,129.87Z"/><path class="cls-3" d="M448.64,112.93l-.72.12C448.2,113.39,448.36,113.06,448.64,112.93Z"/><path class="cls-3" d="M474.33,94.67a1,1,0,0,0,0-.47,1.43,1.43,0,0,1-.12.31Z"/><path class="cls-3" d="M454.84,105.21l.13-.13a5.33,5.33,0,0,0-.28-.49Z"/><path class="cls-3" d="M460,99.72c-.16.09.6.92.9,1.32-.26-.4-.33-.64-.28-.81A4.69,4.69,0,0,0,460,99.72Z"/><path class="cls-3" d="M469.91,92.65l0-.26A1.78,1.78,0,0,0,469.91,92.65Z"/><path class="cls-3" d="M450.84,108.86a1.65,1.65,0,0,0-.33-.24A1.46,1.46,0,0,0,450.84,108.86Z"/><path class="cls-3" d="M307.41,264.24l-.14-.14C307.32,264.21,307.36,264.28,307.41,264.24Z"/><path class="cls-3" d="M297.28,266.5l0-.13-.42-.47Z"/><path class="cls-3" d="M422.65,133.78h0C422.73,133.55,422.67,133.64,422.65,133.78Z"/><path class="cls-3" d="M378,179.66c1.22.2.08,1.75,1.64,1.77C379.21,181.19,379.05,179.48,378,179.66Z"/><path class="cls-3" d="M474.08,94.71a1.51,1.51,0,0,1-.21.23A.4.4,0,0,0,474.08,94.71Z"/><path class="cls-3" d="M379.59,181.43h.16A.85.85,0,0,0,379.59,181.43Z"/><path class="cls-3" d="M411.76,145.63a2,2,0,0,0,.47.23A1.18,1.18,0,0,0,411.76,145.63Z"/><path class="cls-3" d="M421.36,138.29l-.31.1A.54.54,0,0,0,421.36,138.29Z"/><path class="cls-3" d="M408.49,151.15c-.18,0-.32,0-.37.24a.48.48,0,0,0,.14.05C408.21,151.28,408.23,151.15,408.49,151.15Z"/><path class="cls-3" d="M403.92,155.73l.24.07.1-.18Z"/><path class="cls-3" d="M320.94,250a4.63,4.63,0,0,1-.93-.5C320.65,249.94,320.18,250.82,320.94,250Z"/><path class="cls-3" d="M473.88,94.23c.17.23.23.37.2.48a.78.78,0,0,0,.11-.2A.87.87,0,0,0,473.88,94.23Z"/><path class="cls-3" d="M414.58,157.6l-.85.61A2.93,2.93,0,0,0,414.58,157.6Z"/><path class="cls-3" d="M353.66,217l-.08.27C353.67,217.22,353.7,217.14,353.66,217Z"/><path class="cls-3" d="M411.69,160.49a1.9,1.9,0,0,0-1-.14,1.12,1.12,0,0,0,.12.29Z"/><path class="cls-3" d="M320,249.44h0Z"/><path class="cls-3" d="M317.1,256.12c.71-.67-.7-1.35-1.15-2.1.53-1.12,1.15.39,2,.64.24-.79-.33-2.14.1-2.49.2.14.34.13.47.44-.29-1.38,1.58-1.67,1.17-3.35a1.2,1.2,0,0,1,.34.18,8.44,8.44,0,0,1-1.53-1.34c.29-.32-.08-1.23.71-.67-.21.17.05.47.18.77l0-.62c1.27.69-.11.78.62,1.51.31-1,.24-2.51,1-2.72,1.06.86-.82,1.46.68,1.67l-1.12.38c2.1.94-.56.36,1.59,1.45,1.27-.71.62-1.6,1.89-2.31-.31-.75-.87-.71-1.18-1.47.45-2.36,3.52,1.31,3.28-1-.38-.91-1.49-2.23-.11-2.32l.83,1.34c1.07-.85-1-2.11.73-2.39.24.61-.4,1.12-.12,1.1,1.5.21-.16-1.07.34-1.57l1.07.85c.86-1.17,1.29-3,2.25-4.29.22.35.33.84.89.87.94-1.91,3.16-2.93,5.11-3.73l-.31-1.36c.13-.11.6.15.63.45.85-.23-.5-.56-.57-1.14.25-.37.88.07.94.51.24-1.65,1.18-4.21,3.06-4.31l.06.44c1.11-.44-.83-2.58.66-2.53v.29c2.05-1.32,3.15-4,5.69-4-1-1.44,2.2-1.13.64-2.91,1.78-.13,1.81.44,3.72-.36.44-.28-.51-1.58-.23-2.2l.88.86-.31-1.52,1.37.72.19-.64a1,1,0,0,1-1-.32c.26-1,2.21-1,2.67-.56l.81-2.28c.32.38.18.76.2,1.19-.06-1.72,1.07.77,1-.81-.3-.09-.46-.57-.62-.76.9.15,1.77-.71,2.18-1.57l.48.73c1.3-1,2.13-2.72,3.44-4-.75.19-1.68-1-1.4-1.44l1.07.77c-.33-.81-.74.05-.94-1.15.59-.38,1.37.72,1.4,1.3l.26-.91c.31.24.32.53.63.91-.33-.81,1.94-.08,1.29-1.42l.31.24c1.3-1.29,1.57-2.19,2.57-3.28-.77-.82-.19-1.06-.52-2,1-.52,2.51-.75,3.37-1.75.26-1.05-.48-.86-.66-1.63.78.68,1.64-.32,1.68.68a10.64,10.64,0,0,0,2.1-3.57c-.45-.14-.75-.1-.91-.44.14-.37.89-.28,1.2.11v.14c.5-2.67,5.77-1.54,5.52-4.32v.15l.53-2.1c.72-.47.18.91,1.07.91.21-2.62,2.41-2.06,2.77-4,3,1.23,3-3.35,5.62-3.2l-.57-.43c-.18-.81.66-.09,1-.21-.42-.36-.79-.11-.87-.58,2.05-3.27,6.23-4.75,9.41-7,1.13-.86-2-3.17.42-3.22l.58,1.29c.89-3.14,4.15-4.08,5.17-7,.1.33.37.62.18.8,1.09.27,1.57-1.5,1-2.06.37-.25.58.43,1,.52.81,0,.18-1.91,1.08-1.46.14.07.1.34.07.47-.05-.61,1.36-1.19.31-1.71,1.11-.37,1.07-1.76,2.12-1.89-.49-1.26,1.69-.84.57-2.21,1.23,1.34,2.33-.26,2.2-1.33.23.54.81,0,1.16.71.51-.55.76-1.27,0-1.84,2.52.55.75-3.21,3.26-1.8a32.84,32.84,0,0,1,3-5.93c1.22,1.33-1.45,1.7,0,3,.83-1.88.51-3.75,2.16-4.78.52-.18.36.75.46,1.08.82-1.88,2.73-2.5,3.24-4.39a.87.87,0,0,1,.09.6c.19-.28.73-.37.13-.92l-.08.39c-1.22-.46-.81-2.7-1.22-3.19,1.26,2.07,1.61-.77,3.07,2a1.21,1.21,0,0,0-.45-1.09c.34-.11.64,0,.85.71.53-1.16-.39-1.47.39-2.23.28.28.24.55.49,1-.16-.94-.32-1.88.57-2.29.13.21.42.35.23.54,1-1.2.44-3.36,2.19-4.06.86,1.59.82,0,1.94,1l.35-1-.78-.25c.6-.56.34-1.84,1.18-2v.86l.88-1.28-1,.21c0-1.12-1.4-1.27-.33-1.74-.05.26.58-.57,1.51-.24h0c0-.62-.11-1.27.58-1.43.44.22,1.08,1.25,1.37,1.41-.6-1.17,1.11-1.6.52-2.9a2.65,2.65,0,0,0,.81,1l-.48-1c.49,0,.64,0,1,.52.94-.67-1.59-1.08-.06-1.46,0,.14.12.21.08.47,1.26-.66,1.39-2.3,2.63-2.83,1.32.8-.51,1,.68,1.63,1.08-1.47,1.35-3.9,2.83-4.88l-.34.11c-1.33-1.67,1.65-.17,1.57-1.5,0,.26.63,1,.5.82,1.09-.6,1.36-2.09,2.16-3.83l.23.54c.84-.15,1.5-1.11,2.21-1.47-.23-.54.14-.79-.6-1.16,3.84.54,2-4.33,5.26-4-.17.18-.08.75.06.61l.9-1.6c-.76-.55-.56-.23-1.33-.48a1.47,1.47,0,0,1,.13-1.51c-.13,1,1.05,1,1.66,1.17-.24-.16-.38-.46-.6-.65,1.81.52-1.21-1.42.46-1.53l.3.39c.16-.5,0-1.26.47-1.53.9.61,0,.71.6,1.36.46-.55-.44-2.43.77-2.13,0,.42-.31.73-.31,1.16,1.38.39,1.21.1,1.72-.13l0,0,1.25-.45-.46,0c-1.34-2.61.93-1.65.49-3.79.39,2,.57.84,1.36,1.76.46,0,1.05,0,1.2.29-.29-1.09,1.22-.12.77-1.7.3.25.46-.4,1.06.38.31-.74-.6-.36-.9-.75-.14-1.74,3-.75,2.9-3.2.47-1.53-.28-2.65.18-4,.76.13.75,1.26.75,1.26.91-.09,1.22-.55,1.38-1.34.14.34.45.44.9.61.31-.46-.75-1.26.16-1.36a7.37,7.37,0,0,1,.73,1.49c.19-.7.12-1.66.34-2.38.61.36.45,1,.6,1.49.31-.74.92-1.79.32-2.71l-.61.06c.16-.23.75.56.75.83.15,1.05-.91.39-1.21.14l.15-.51c-1.95-1.28-1.07,1.59-1.83,2.16l-.9-1.45.29,1.66c-.45-.16-1.21-.72-1-1.22-1.06-.11,0,.84-1.07.6-.14-.05-.18-.13-.18-.22l-.12.82c-.16-.34-.91-.75-.45-.87-1.52.16-.47,2.23-1.68,1.66v-.14c-.77,1.56.75,1,.89,2.86l-2.72-1.54.75,1a.52.52,0,0,1-.76-.13c.15,1,.46.3.75,1.11-1.36-.2-1.22,2-2.73.72.45.87,1.06,0,.9,1-1.66-1.3-.46,1-1.67.82-.6-.93.3-1-.9-1.18,1,1.61-1.32.75-1.51,1.44,1,1-.55,1.4-1,2.49-.3-.39-2,.84-3,1.16l-.15-.19c.9,1.17,0,1.7-.32,2.43a2,2,0,0,1-.75-1.54l-.48.5a1.27,1.27,0,0,1,0,1.21l-.66-.9c-.61.7-.4,2.23-1.76,2.56.68.77,2.69,1.34,2.28,2.72-.42-.36-1.13-1-1.05-1.39,0,.13.05.6-.27.58l-.3-1c-.68.09.35.75,0,1-.55-.56-.63-.17-1-.66,0-.13.5,0,.4-.37a2,2,0,0,1-1.76,0c.35.29.76.75.58,1.08-.62.69-.9-.45-1.57-.36.23.55-.59.56.24,1.41-.2.19-.62-.17-.92-.32,0,.71-1.48,1.69-.21,2.19l.15,0s0,.06,0,.1h0c-.28,1.94-2.78,1.83-3.52,3.29l-.28-.29c-.34,1-1.27,1.65-1.14,2.72-.2.2-1-.05-1.22-.46-.29.71,0,1.08-1.22,1.34,0-1-.61-.25.16-.87-.89.41-1.49.11-1.43,1.58a.77.77,0,0,0-1.49.11l1,.05a2.62,2.62,0,0,1-1,.95l-.77-1.11c-2.48.19-.46,4.36-3.4,3.46.31,1,1.19-.27,1.65.82-.74.49-2.74-.22-2.93,0-1.36.32.59,2.16-.65,2.68.45.22,1.45,1,1.11,2-.74.49-2.16-.66-2-1.31a.23.23,0,0,1,.4,0c.08-.32.19-.73-.41-.85l.25.42c-.64,0-1.45.84-1.81.09-.14.78.36.75.87.58-1.27.3-1.24,1.22-2.38,1.7.31.06.83.33.69.46-1.6.77.12,1.16-.54,2.11-1-.05-1.06-1.38-1.44-.14-.84.15-1-.79-1.07-1.26-.1,1.39-1.81,1-2.35,1.26l.12-.66a1.34,1.34,0,0,1-.47.77l.9.45c-.35.11-.55.3-.82,0,.2.68,1.3.94,1.43,2-.65,0-.56,1.29-1.56.51,1.26-.66-1-.79-.33-1.75a.77.77,0,0,1-.59.56.3.3,0,0,1-.15-.33c-1.71.12.59,1.43-.38,2.36-.38-.62-1.17-.73-1.22-.47.39-.37,1,.66,1.05,1.39-1,.22-.37,1-.74,1.23l.55-.18c.38.62,0,.86-.26,1.45-.42-.36.12-.66-.2-.68.41,1.36-2,.15-2.05,1.41-.64,0-1-.92-1.47-.88-.08,1.39-1.48.11-1.72,1.42.9.46.77.25.88,1.46l.8-1.75.16,1.8c.4-.38.39-1.24.74-1.36.16.94,0,.74.77,1.11-1.53-.48-.45,1.64-1.74,1.56L416.17,142c-1.66.17-.77,2.48-2.38,3.25l.67-.09c.51.82-.64.83-.75,1.48a2.6,2.6,0,0,0-1.48-.74c.43.39-.91.83.1,2l-1.27-.2c-1.26.66.5,2.68-.61,3.42-.33-.89-1.15-.86-1-1.92-.32.31-.7.48-.31.87-.53-.17-.1,1.61-.92,1.36.12.38.66,1,.27,1.3a.87.87,0,0,1-.28-.27c.28.27-.16.91.76,1.23-2.69-.8-2.53,2.77-4.85,2.1a15.79,15.79,0,0,1-1.68,2.5c-.13-.2-.28-.28-.1-.34-1.36.33,1.08,2.13-.46,2.5-1.39-.41,0-1-.62-1-2-1.71-.91,1.41-2.62,1l0-.27c-1.11-.13-.5,1.9-1.44,2.57a.88.88,0,0,0-.27-.28,5.48,5.48,0,0,1-.86,3.87c-.48-1,0-.73-.9-1.31-.25.45,1.27,1.07.78,2a4.41,4.41,0,0,1-2.31-.73l.62-.69c-1.35-.68-.82.88-1.34,1.05l-.39-.49c-.86,1.14.24,2.27-.92,3.27l.45.22c.51,1.69-1.12-.13-.88,1.28l-1.3-.94a13.13,13.13,0,0,1-.76,3.34c-.44-1.22-.05-2.46,0-3.45-.4.37-1.23,1.39-.88,2.14,0-.26,0-.73.3-.71a2.9,2.9,0,0,1-.57,3.14c-2-2.3-2.55,1.46-4.78.33-.56,2.16-3,2.35-4.49,4.06,2.25,1.12-.41.51,1.42,2.14-.26.48-.43.59-.57.51l-2.15.08c-.77-.24,0-.73-.45-1.08-.94.67-1.08-.4-2.07-.33.73.51.61,1.17-.09,1.39l1.45.15c-.21,2.05-2.43-.47-2.65,1.57l-.19-.9c-.26.9-2.16,2.14-1.34,4.1-.3-.1-.91-.44-.78-.82-1.6,1.18-1.62,4.58-3.55,4.8l-.32-.52c-.14.38.34,1.24-.41,1.14-.16-.19-.32-.53-.46-.43,0,.28.05,1.43-.54,1.53l-.18-.77c-1.91.8-.93,3.24-1.77,4.67a2.85,2.85,0,0,0-3.45-.26l-.16-.19c-1.74,1.43-1.65,3.72-2.63,5.67-2.26-.44-3.64,2.51-5.86,3.21.45,0,.93,1,.8,1.39-.6.09-.09,1.82-1.17.62l.14-.1c-1.38-.86-1.78.14-2.36.66l1.4,1.58c-3.61-.73-3,4.57-5.7,3.41,0,.72-.41,1.14-.38,1.86L344,213a8.19,8.19,0,0,0-2.75,2.52l-.33-.82c-.72.62,1.47,3.16.89,3.82l-1.38-1c-1.15,1.18-3.38,1.32-3.45,3.56-.16-.2-.47-.58-.33-.81-.58.51-2.94,1.32-1.1,2.76-1.08-1.06-1.31,1.1-1.47,2.2l-.69-.88c.47,1.54.73,1.83.27,2.85-.28.08-.79-.47-.35-.51-1,.18.29,1.21-.85,1.5l-.23-.77c-.67.55-.35.77-.1,1.69-.06.69-1.35.95-2.15.32.36.52.61,1.43,0,1.58a.9.9,0,0,1-.37-.66c-1.55.47-.59,2.42-2.05,2.34a1.23,1.23,0,0,0-.59-.35c.82-.79,1.51-1.39,1.51-1.27-.73-.73-1.51-.21-2-1.73,0,1.07.32,3.15-.65,3.44a1.78,1.78,0,0,1-.34-.17v-.14c-.22.07-.28.27-.29.51a1.73,1.73,0,0,0-.74.31c-.67-.53-1.07.42-1.42.71.82.77.27,1.07,1.32,1.33-.1,0,0-.16.15-.41a.43.43,0,0,0,.06-.22.93.93,0,0,0,.05.1c.19-.24.45-.53.75-.86.15.66.22,1.26-.58,1.18.34.68.69,1.39.83,1.74-1.55-.67-3-.42-3.81-1-.54,1.43-2,2.62-1.16,4.74-.09.47-.75-.11-1.09-.24,0-.31.23-.48.1-.78-.18.94-1.51,1.81-.61,3-1.17.24-.56-1.36-1.36-.22l-.19-.45c-3.58.25-.45,5.78-4.71,5.76a.77.77,0,0,1,.62.12c-3.37,1.47-4.1,5.87-8,6.76-1,.38-.38,1.12-.29,2l-1-.71.28,1.69c-.29,1.73-3.84-.35-3.75,2.28l.74.41c-.56.35-1.1,1.79-1.69,1.05.06.15.45.75,0,.63l-.46-.44-.36,1.89c-1.19.55-1.63-1.91-3-.73-.3.65,0,2.65.43,2.77a1,1,0,0,1,1.23.22l-.2.67c1.24,1.39,2.26,3.07,4.24,2.93l-.07-1.54.88.4-.58.66c.95.25.64-.5.53-1.12a1.68,1.68,0,0,0,1,.4l-.54-2c.61.42.7,1.34,1.47,1.14-.24-.92-1.48-.83-1.3-1.77,1,.24,1.34.83,1.24-.09a1,1,0,0,1,.51.89c0-.77.8-1.14.29-2,1.11.37,1.06-1.44,2.27-.16a2.93,2.93,0,0,1,0-2c.87,2.11,1.35-1.18,2.79.59-.89-1.8,1.06-2.25,1.12-3.81.06.15.19.46.05.46.57-.34,1.11-.07,1.65-.11-1-1.17-.59-2.13-.89-3.2,1.63.51,1,1.64,2.16,2.49-.92-.87.08-1.87-.86-2.43,1.09.24.69,0,1.83.66-1.31-1.47.16-.64-.33-1.84,1.3.06,1.46,1.13,1.72,0C317.21,255,317.1,256.12,317.1,256.12Zm13.79-18.58v0l-.29.37Zm1.34-1.37a3.82,3.82,0,0,0-.62.56c-.32-.23-.55-.56-.4-.69C331.32,236.3,331.8,236.14,332.23,236.17Zm-8.38-2.64c.1-.32.33-.24.52-.11a2.78,2.78,0,0,0-.28.48s0,.08.07.12A2.31,2.31,0,0,1,323.85,233.53Z"/><path class="cls-3" d="M324.5,235s0,.1,0,.15a2.19,2.19,0,0,0,.31,0l-.17-.32Z"/><path class="cls-3" d="M449,112.86h0a.48.48,0,0,1,.18.06A.76.76,0,0,1,449,112.86Z"/><polygon class="cls-3" points="352.53 218.91 352.33 218.71 352.39 219.01 352.53 218.91"/><path class="cls-3" d="M459.18,108.1a.57.57,0,0,0,.3.11A.79.79,0,0,0,459.18,108.1Z"/><path class="cls-3" d="M462.59,105l.74-.17A2.52,2.52,0,0,0,462.59,105Z"/><path class="cls-3" d="M465.47,103a2.82,2.82,0,0,0-.29-.39h0Z"/><path class="cls-3" d="M426.86,143.44a.22.22,0,0,0-.06.13C426.72,144,426.82,143.74,426.86,143.44Z"/><path class="cls-3" d="M436.77,129.81a3.13,3.13,0,0,1,0,.75C437,130.42,437.22,130.27,436.77,129.81Z"/><path class="cls-3" d="M414.67,157.54v0l-.08.08Z"/><path class="cls-3" d="M436.21,131.1a.61.61,0,0,0,.56-.54C436.54,130.68,436.26,130.8,436.21,131.1Z"/><path class="cls-3" d="M476.62,92.53l.15-.09a.6.6,0,0,1-.11-.14Z"/><path class="cls-3" d="M476.66,92.3l0-.23C476.63,92.14,476.59,92.19,476.66,92.3Z"/><path class="cls-3" d="M476.78,91.59l-.08.48A.32.32,0,0,0,476.78,91.59Z"/><path class="cls-3" d="M473,95.46l.25.32A1.34,1.34,0,0,0,473,95.46Z"/><path class="cls-3" d="M472,96.54c.3-.17,1.21,0,1.37-.5l-.2-.26C473.48,96.37,471.78,95.83,472,96.54Z"/><path class="cls-3" d="M464.3,97.15l1.07-.61c-.46-.16-1.06-.38-.75-.83C462.64,95.85,465.52,96.18,464.3,97.15Z"/><path class="cls-3" d="M461.25,99.31c.31-.6-.45-.44-.6-.64C460.65,99.24,460.65,99.38,461.25,99.31Z"/><path class="cls-3" d="M442.46,118.09l-.68-.76C441.54,117.78,442.06,117.61,442.46,118.09Z"/><polygon class="cls-3" points="442.61 125.43 443.39 125.54 442.89 124.72 442.61 125.43"/><polygon class="cls-3" points="435.33 122.39 435.38 122.14 435.06 122.98 435.33 122.39"/><path class="cls-3" d="M404,154.21l1,.79C405.1,154.6,404.15,153.55,404,154.21Z"/><path class="cls-3" d="M391.31,168.74c-.59-.29-1.26-.2-1.06.48C390.62,169,391.27,169,391.31,168.74Z"/><polygon class="cls-3" points="349 208.15 348.98 207.58 348.71 208.34 349 208.15"/><path class="cls-2" d="M466.2,261.17a5,5,0,0,1-3.53-1.46L304.13,101.17a5,5,0,1,1,7.07-7.07L469.74,252.64a5,5,0,0,1-3.54,8.53Z"/></g></svg>