<svg xmlns="http://www.w3.org/2000/svg" viewBox="0 0 597 597"><defs><style>.cls-1{fill:#80a41b;}.cls-2{fill:#12293a;}.cls-3{fill:#fff;}</style></defs><g id="Circle_backgrounds" data-name="Circle backgrounds"><circle class="cls-1" cx="298.5" cy="298.5" r="298.5"/></g><g id="Layer_1" data-name="Layer 1"><path class="cls-2" d="M210.63,518A126.82,126.82,0,1,1,337.45,391.18,127,127,0,0,1,210.63,518Zm0-243.63A116.82,116.82,0,1,0,327.45,391.18,116.94,116.94,0,0,0,210.63,274.37Z"/><path class="cls-3" d="M476.88,122.65c-.15-.34-.75-.84-.91-.47l.75,1.12Z"/><path class="cls-3" d="M473.39,122.67a3.91,3.91,0,0,0,1.65,2.57c-.59-1.2-.14-.9-.89-2.3.15-.37.76-.15,1.06.23-.15-.33.61-.19.16-.92-1.06-.39-1.52,0-1.37,1.06C473.69,123.2,473.54,122.86,473.39,122.67Z"/><path class="cls-3" d="M446.45,146.69l.27-.05A.36.36,0,0,0,446.45,146.69Z"/><path class="cls-3" d="M430.15,162a.31.31,0,0,0,0-.38C430.07,161.76,430,161.91,430.15,162Z"/><path class="cls-3" d="M426.42,163.63l.22-.09C426.49,163.51,426.38,163.52,426.42,163.63Z"/><path class="cls-3" d="M446.45,146.69l-.72.13C446,147.15,446.18,146.83,446.45,146.69Z"/><path class="cls-3" d="M472.14,128.44a.89.89,0,0,0,0-.48,1.52,1.52,0,0,1-.12.32Z"/><path class="cls-3" d="M452.65,139l.13-.13a5.28,5.28,0,0,0-.28-.48Z"/><path class="cls-3" d="M457.85,133.49c-.16.08.6.92.9,1.31-.26-.39-.33-.64-.28-.8A4,4,0,0,0,457.85,133.49Z"/><path class="cls-3" d="M467.72,126.42l0-.27A2.19,2.19,0,0,0,467.72,126.42Z"/><path class="cls-3" d="M448.65,142.62a1.54,1.54,0,0,0-.33-.23A1.41,1.41,0,0,0,448.65,142.62Z"/><path class="cls-3" d="M305.22,298l-.14-.14C305.13,298,305.17,298,305.22,298Z"/><path class="cls-3" d="M295.09,300.26l0-.13-.42-.46Z"/><path class="cls-3" d="M420.47,167.55h0C420.54,167.32,420.48,167.41,420.47,167.55Z"/><path class="cls-3" d="M375.76,213.43c1.22.19.08,1.74,1.64,1.76C377,215,376.86,213.25,375.76,213.43Z"/><path class="cls-3" d="M471.89,128.47a1.51,1.51,0,0,1-.21.23A.35.35,0,0,0,471.89,128.47Z"/><path class="cls-3" d="M377.4,215.19h0Z"/><path class="cls-3" d="M409.58,179.39a1.52,1.52,0,0,0,.46.23A1.36,1.36,0,0,0,409.58,179.39Z"/><path class="cls-3" d="M419.18,172.05l-.32.11A.6.6,0,0,0,419.18,172.05Z"/><path class="cls-3" d="M406.3,184.91c-.17.06-.32,0-.37.25l.14.05C406,185,406,184.92,406.3,184.91Z"/><path class="cls-3" d="M401.73,189.49a2.25,2.25,0,0,0,.24.08l.11-.19Z"/><path class="cls-3" d="M318.75,283.72a4.67,4.67,0,0,1-.93-.51C318.46,283.71,318,284.58,318.75,283.72Z"/><path class="cls-3" d="M471.69,128c.17.22.23.36.2.47a.72.72,0,0,0,.11-.19A.79.79,0,0,0,471.69,128Z"/><path class="cls-3" d="M412.39,191.37l-.85.61A3.13,3.13,0,0,0,412.39,191.37Z"/><path class="cls-3" d="M351.47,250.77l-.07.26C351.48,251,351.51,250.9,351.47,250.77Z"/><path class="cls-3" d="M409.5,194.25a2,2,0,0,0-1-.14,1,1,0,0,0,.12.29Z"/><path class="cls-3" d="M317.81,283.21h0Z"/><path class="cls-3" d="M314.91,289.88c.71-.67-.7-1.34-1.15-2.09.53-1.12,1.15.39,2,.64.24-.79-.33-2.15.1-2.49.2.14.34.13.47.43-.29-1.38,1.58-1.66,1.17-3.34a1.2,1.2,0,0,1,.34.18,8.44,8.44,0,0,1-1.53-1.34c.29-.33-.08-1.24.72-.67-.22.17,0,.46.17.76l0-.62c1.27.69-.11.79.62,1.51.31-1,.24-2.5,1-2.71,1.06.86-.82,1.46.68,1.66l-1.12.39c2.1.94-.56.35,1.59,1.44,1.27-.71.62-1.59,1.89-2.3-.31-.76-.87-.72-1.18-1.47.45-2.37,3.52,1.31,3.28-1-.38-.9-1.49-2.22-.11-2.31l.84,1.33c1.06-.85-1-2.11.72-2.38.24.61-.4,1.11-.12,1.1,1.5.2-.16-1.08.34-1.58l1.07.86c.87-1.17,1.29-3,2.25-4.3.22.35.33.85.89.88.94-1.91,3.16-2.93,5.11-3.74l-.31-1.35c.13-.11.6.15.63.44.85-.22-.5-.55-.57-1.14.25-.36.88.08.94.52.24-1.65,1.18-4.21,3.06-4.32l.06.44c1.11-.44-.83-2.57.66-2.52v.28c2.05-1.32,3.15-3.94,5.69-4-1-1.44,2.2-1.14.64-2.91,1.79-.14,1.81.44,3.72-.36.44-.29-.5-1.58-.23-2.2l.88.86-.31-1.53,1.37.72.2-.64a1,1,0,0,1-1-.31c.26-1.05,2.21-1,2.67-.56l.81-2.29c.32.39.18.77.2,1.2-.06-1.72,1.07.76,1-.81-.3-.1-.46-.57-.62-.77.9.15,1.77-.7,2.18-1.56l.48.72c1.3-1,2.14-2.71,3.44-4-.75.18-1.68-1-1.4-1.45l1.07.77c-.33-.81-.74.05-.94-1.15.59-.37,1.37.73,1.4,1.3l.26-.9c.31.24.32.52.63.91-.33-.81,1.94-.09,1.29-1.43l.31.24c1.3-1.28,1.57-2.18,2.57-3.28-.77-.82-.19-1-.52-2,1-.51,2.51-.75,3.37-1.74.26-1-.48-.87-.66-1.63.78.67,1.64-.33,1.68.68a10.74,10.74,0,0,0,2.1-3.57c-.45-.15-.75-.1-.91-.44.14-.38.89-.28,1.2.1v.15c.5-2.67,5.77-1.55,5.52-4.32V225l.53-2.09c.72-.48.18.9,1.07.91.21-2.63,2.41-2.06,2.77-4,3,1.24,3-3.34,5.62-3.19l-.57-.44c-.18-.8.66-.09,1-.2-.42-.36-.79-.12-.87-.58,2.05-3.27,6.23-4.76,9.41-7,1.13-.87-2-3.17.42-3.23l.58,1.29c.89-3.13,4.15-4.07,5.17-7,.1.34.37.62.18.81,1.09.26,1.57-1.51,1-2.07.37-.24.58.43,1,.53.82,0,.18-1.92,1.08-1.47.14.08.1.34.07.47-.05-.6,1.36-1.18.31-1.71,1.12-.36,1.07-1.76,2.12-1.89-.49-1.26,1.69-.84.57-2.2,1.23,1.33,2.33-.26,2.2-1.33.23.54.81,0,1.16.71.51-.55.76-1.28,0-1.84,2.52.54.75-3.21,3.26-1.8a32.18,32.18,0,0,1,3-5.93c1.22,1.32-1.45,1.7,0,3,.83-1.88.51-3.76,2.16-4.79.52-.17.36.75.46,1.09.83-1.88,2.73-2.5,3.24-4.4a.87.87,0,0,1,.09.6c.19-.28.73-.36.13-.91l-.08.38c-1.22-.46-.81-2.69-1.21-3.18,1.25,2.06,1.6-.77,3.06,2a1.2,1.2,0,0,0-.45-1.09c.34-.12.64,0,.85.71.53-1.16-.39-1.48.39-2.24.28.29.24.55.49,1-.16-.93-.32-1.87.57-2.29.13.21.42.36.23.55,1-1.21.44-3.37,2.19-4.06.86,1.58.82,0,1.94,1l.35-1-.78-.25c.6-.55.34-1.83,1.18-2v.86l.88-1.28-1,.21c0-1.13-1.4-1.27-.33-1.75-.05.27.59-.56,1.51-.24h0c-.05-.63-.11-1.27.58-1.44.45.23,1.08,1.26,1.37,1.41-.6-1.16,1.11-1.59.52-2.89a2.53,2.53,0,0,0,.81,1l-.48-.95c.49,0,.64,0,1,.52.94-.67-1.59-1.09-.06-1.46,0,.13.12.2.08.47,1.26-.66,1.39-2.31,2.63-2.84,1.32.81-.51,1,.68,1.63,1.08-1.46,1.36-3.9,2.83-4.88l-.34.11c-1.33-1.67,1.65-.17,1.57-1.5,0,.26.63,1,.5.83,1.09-.6,1.36-2.09,2.16-3.84l.23.54c.84-.15,1.5-1.1,2.21-1.46-.22-.55.14-.79-.6-1.17,3.84.55,2-4.32,5.26-4-.17.18-.08.76.06.62l.9-1.6c-.76-.56-.56-.24-1.33-.48a1.46,1.46,0,0,1,.13-1.51c-.13,1,1.05,1,1.66,1.17-.24-.16-.38-.47-.6-.65,1.81.51-1.21-1.42.46-1.53l.3.39c.16-.51,0-1.27.47-1.53.9.61,0,.71.6,1.35.46-.55-.44-2.43.77-2.13,0,.43-.31.74-.31,1.16,1.38.39,1.21.11,1.72-.12l0,0,1.25-.46-.45,0c-1.35-2.6.92-1.65.48-3.79.39,2.05.57.85,1.36,1.77.46,0,1.05-.05,1.2.29-.29-1.09,1.22-.13.77-1.71.3.25.46-.4,1.06.38.31-.73-.6-.35-.9-.74-.14-1.75,3-.75,2.9-3.2.47-1.54-.28-2.65.19-4,.75.13.74,1.26.74,1.26a1.4,1.4,0,0,0,1.38-1.34c.14.33.45.44.9.6.31-.45-.75-1.26.16-1.36a7.64,7.64,0,0,1,.73,1.49c.2-.7.12-1.66.34-2.37.61.35.45,1,.6,1.49.31-.75.92-1.8.32-2.72l-.61.06c.16-.22.76.56.75.84.15,1-.91.38-1.21.13l.16-.51c-2-1.27-1.08,1.59-1.84,2.17l-.9-1.46.29,1.67c-.45-.17-1.2-.72-1-1.23-1.06-.1,0,.84-1.07.61-.14-.06-.18-.14-.18-.22l-.12.81c-.16-.34-.91-.75-.45-.87-1.52.16-.47,2.24-1.68,1.66v-.14c-.77,1.56.75,1,.89,2.86l-2.72-1.54.75,1a.51.51,0,0,1-.76-.13c.15,1,.46.3.75,1.12-1.36-.21-1.22,2-2.73.72.45.86,1.06,0,.9,1-1.66-1.3-.46,1-1.67.82-.6-.92.31-1-.9-1.17,1,1.61-1.32.74-1.51,1.44,1,1-.54,1.39-1,2.48-.3-.39-2,.85-3,1.17l-.15-.19c.9,1.17,0,1.69-.32,2.43a2,2,0,0,1-.75-1.54l-.48.49a1.29,1.29,0,0,1,0,1.22l-.66-.9c-.61.69-.4,2.23-1.76,2.55.68.77,2.69,1.35,2.28,2.72-.42-.36-1.13-1-1.05-1.39,0,.13.05.6-.27.59l-.3-1c-.68.1.35.75,0,1-.55-.57-.63-.17-1-.66,0-.13.5,0,.4-.37a2,2,0,0,1-1.76,0c.35.29.76.76.58,1.08-.62.7-.9-.45-1.57-.35.23.54-.59.56.24,1.4-.2.19-.62-.16-.92-.31,0,.7-1.48,1.68-.21,2.19l.15,0s0,.05,0,.09h0c-.28,1.94-2.78,1.83-3.52,3.29l-.28-.28c-.34,1-1.27,1.65-1.14,2.72-.2.19-1,0-1.22-.47-.29.71,0,1.08-1.22,1.35,0-1-.61-.26.16-.87-.89.41-1.49.11-1.43,1.57a.77.77,0,0,0-1.48.12l1,0a2.67,2.67,0,0,1-1,.94L436,154c-2.48.19-.46,4.36-3.4,3.46.31,1,1.19-.26,1.65.82-.74.49-2.73-.22-2.93,0-1.36.32.59,2.16-.65,2.68.45.23,1.45,1,1.11,2-.74.49-2.16-.65-2-1.31a.24.24,0,0,1,.4,0c.08-.32.19-.72-.41-.84l.25.41c-.64,0-1.45.84-1.81.1-.14.78.36.74.87.57-1.27.31-1.24,1.22-2.38,1.71.31.05.83.33.7.45-1.61.78.11,1.16-.55,2.12-1-.06-1.06-1.39-1.44-.15-.84.15-1-.78-1.07-1.25-.1,1.38-1.81.95-2.35,1.26l.12-.66a1.34,1.34,0,0,1-.47.77l.9.45c-.35.11-.54.3-.82,0,.2.67,1.3.93,1.43,2-.65,0-.56,1.3-1.56.51,1.26-.66-1-.79-.33-1.74a.77.77,0,0,1-.59.56.29.29,0,0,1-.14-.33c-1.72.12.58,1.43-.39,2.36-.38-.63-1.17-.74-1.22-.47.39-.38,1,.65,1.05,1.39-1,.22-.37.95-.73,1.22l.54-.18c.38.63,0,.87-.26,1.45-.42-.35.12-.65-.2-.67.41,1.35-2,.15-2.05,1.4-.64,0-1-.91-1.47-.87-.08,1.38-1.48.11-1.72,1.42.9.45.77.25.88,1.45l.8-1.75.17,1.8c.39-.37.38-1.24.73-1.35.16.94,0,.73.78,1.11-1.54-.49-.46,1.63-1.75,1.56L414,175.73c-1.66.17-.77,2.48-2.38,3.25l.67-.09c.51.82-.64.82-.75,1.47-.53-.59-1-.55-1.48-.74.43.4-.91.84.1,2.06l-1.27-.21c-1.26.66.5,2.69-.61,3.42-.33-.88-1.15-.86-1-1.91-.32.3-.7.48-.31.87-.53-.17-.1,1.6-.92,1.36.12.37.66,1,.27,1.3a1,1,0,0,1-.28-.28c.28.28-.16.92.76,1.23-2.69-.79-2.53,2.78-4.85,2.11a15.79,15.79,0,0,1-1.68,2.5c-.13-.21-.28-.28-.1-.34-1.36.32,1.08,2.12-.45,2.5-1.4-.42,0-1-.63-1-2-1.7-.91,1.41-2.62,1l0-.26c-1.11-.13-.5,1.9-1.44,2.57a.88.88,0,0,0-.27-.28,5.49,5.49,0,0,1-.86,3.87c-.48-1,0-.73-.9-1.32-.25.45,1.27,1.08.78,2a4.39,4.39,0,0,1-2.31-.72l.62-.7c-1.35-.67-.82.88-1.34,1l-.39-.48c-.86,1.14.24,2.26-.92,3.26l.45.22c.51,1.69-1.12-.12-.88,1.28l-1.3-.94A13.29,13.29,0,0,1,387,207c-.44-1.22-.05-2.46,0-3.46-.4.38-1.23,1.39-.88,2.14,0-.26,0-.73.3-.71a2.91,2.91,0,0,1-.57,3.15c-2-2.3-2.55,1.45-4.78.33-.56,2.15-3,2.34-4.49,4,2.25,1.13-.41.51,1.42,2.14-.26.48-.43.59-.57.51l-2.15.09c-.77-.24,0-.73-.45-1.09-.94.67-1.08-.39-2.07-.32.73.51.61,1.17-.09,1.39l1.45.15c-.21,2.05-2.43-.48-2.65,1.57l-.19-.91c-.26.91-2.16,2.14-1.34,4.1-.3-.1-.91-.43-.78-.81-1.6,1.18-1.62,4.57-3.55,4.8l-.32-.53c-.14.38.34,1.25-.41,1.15-.16-.2-.32-.53-.46-.44,0,.29.05,1.44-.54,1.53l-.18-.77c-1.91.81-.93,3.24-1.77,4.67a2.86,2.86,0,0,0-3.45-.25l-.16-.19c-1.74,1.42-1.65,3.71-2.63,5.66-2.26-.44-3.64,2.52-5.86,3.22.45,0,.93,1,.8,1.39-.6.09-.08,1.81-1.17.61l.14-.1c-1.38-.86-1.78.14-2.36.66l1.4,1.59c-3.61-.74-3,4.56-5.7,3.4,0,.72-.41,1.15-.38,1.87l-.78-.82a8,8,0,0,0-2.75,2.51l-.33-.81c-.72.62,1.47,3.15.89,3.82l-1.38-1c-1.15,1.19-3.38,1.32-3.45,3.56-.16-.19-.47-.57-.33-.81-.58.52-2.94,1.32-1.1,2.76-1.08-1-1.31,1.1-1.47,2.21l-.69-.89c.47,1.54.73,1.83.27,2.86-.28.07-.79-.48-.35-.51-1,.17.29,1.2-.85,1.5l-.23-.77c-.67.54-.35.76-.1,1.68-.06.7-1.34.95-2.15.33.36.51.61,1.43,0,1.58a.9.9,0,0,1-.37-.67c-1.55.48-.58,2.42-2.05,2.34a1.32,1.32,0,0,0-.59-.35c.82-.78,1.51-1.39,1.51-1.27-.73-.73-1.51-.2-2-1.72,0,1.06.32,3.15-.65,3.44a1.78,1.78,0,0,1-.34-.17v-.15c-.22.08-.28.27-.28.52a1.51,1.51,0,0,0-.75.31c-.67-.53-1.07.42-1.42.71.82.77.27,1.06,1.33,1.32-.11,0,0-.15.14-.4a.43.43,0,0,0,.06-.22.41.41,0,0,0,.05.09c.19-.23.45-.53.75-.86.15.66.22,1.27-.58,1.19.34.67.69,1.38.83,1.73-1.55-.66-3-.41-3.81-1-.54,1.44-2,2.63-1.16,4.74-.09.48-.75-.1-1.09-.23,0-.32.23-.48.1-.79-.18,1-1.51,1.82-.6,3-1.18.24-.57-1.35-1.37-.21l-.19-.45c-3.58.24-.45,5.77-4.71,5.76a.81.81,0,0,1,.62.11c-3.36,1.48-4.1,5.87-8,6.76-1,.38-.38,1.12-.29,2l-1-.71.28,1.7c-.29,1.72-3.84-.36-3.75,2.28l.74.41c-.56.35-1.1,1.78-1.69,1.05.06.15.45.74,0,.62l-.46-.43-.36,1.89c-1.19.54-1.63-1.91-3-.73-.3.64,0,2.64.43,2.76a1,1,0,0,1,1.23.23l-.2.66c1.24,1.4,2.26,3.08,4.24,2.94l-.07-1.54.88.4-.58.66c.95.25.64-.51.53-1.12a1.66,1.66,0,0,0,1,.39l-.53-2c.6.43.69,1.35,1.46,1.15-.24-.93-1.48-.83-1.3-1.78,1,.25,1.34.84,1.24-.09a1,1,0,0,1,.51.9c0-.78.8-1.15.29-2,1.11.37,1.06-1.44,2.27-.15a3,3,0,0,1,0-2c.87,2.11,1.35-1.18,2.79.58-.89-1.8,1.06-2.25,1.12-3.8.06.15.19.45.05.45.57-.34,1.11-.07,1.65-.11-1-1.16-.59-2.13-.89-3.2,1.63.51,1,1.65,2.17,2.5-.93-.87.07-1.87-.87-2.43,1.09.23.69,0,1.83.65-1.31-1.46.17-.63-.33-1.84,1.3.06,1.46,1.14,1.72,0C315,288.79,314.91,289.88,314.91,289.88ZM328.7,271.3v0l-.29.38Zm1.34-1.37a5.91,5.91,0,0,0-.62.56c-.32-.23-.55-.56-.4-.68C329.13,270.07,329.61,269.9,330,269.93Zm-8.38-2.63c.1-.33.33-.24.52-.11a2.31,2.31,0,0,0-.28.47.75.75,0,0,0,.07.12A2.27,2.27,0,0,1,321.66,267.3Z"/><path class="cls-3" d="M322.31,268.73s0,.1,0,.15l.31.05c-.06-.11-.12-.22-.17-.33Z"/><path class="cls-3" d="M446.77,146.63h0a.7.7,0,0,1,.18.05Z"/><polygon class="cls-3" points="350.34 252.68 350.14 252.48 350.2 252.77 350.34 252.68"/><path class="cls-3" d="M457,141.87a.56.56,0,0,0,.3.1A.66.66,0,0,0,457,141.87Z"/><path class="cls-3" d="M460.4,138.81l.74-.17A2.23,2.23,0,0,0,460.4,138.81Z"/><path class="cls-3" d="M463.29,136.72a3,3,0,0,0-.3-.39h0Z"/><path class="cls-3" d="M424.67,177.2a.3.3,0,0,0-.06.14C424.54,177.71,424.63,177.5,424.67,177.2Z"/><path class="cls-3" d="M434.58,163.58a3.13,3.13,0,0,1,0,.75C434.85,164.18,435,164,434.58,163.58Z"/><path class="cls-3" d="M412.48,191.3a0,0,0,0,1,0,0l-.08.08Z"/><path class="cls-3" d="M434,164.86a.61.61,0,0,0,.56-.53C434.35,164.45,434.07,164.57,434,164.86Z"/><path class="cls-3" d="M474.43,126.3l.15-.09a.6.6,0,0,1-.11-.14Z"/><path class="cls-3" d="M474.47,126.07l0-.23C474.45,125.9,474.4,126,474.47,126.07Z"/><path class="cls-3" d="M474.59,125.36l-.08.48C474.61,125.74,474.75,125.65,474.59,125.36Z"/><path class="cls-3" d="M470.77,129.22l.25.33A1.56,1.56,0,0,0,470.77,129.22Z"/><path class="cls-3" d="M469.85,130.3c.3-.17,1.21,0,1.37-.49l-.2-.26C471.29,130.13,469.59,129.59,469.85,130.3Z"/><path class="cls-3" d="M462.11,130.92l1.07-.61c-.46-.16-1.06-.38-.75-.84C460.45,129.61,463.33,129.94,462.11,130.92Z"/><path class="cls-3" d="M459.06,133.07c.31-.59-.45-.44-.6-.64C458.46,133,458.46,133.14,459.06,133.07Z"/><path class="cls-3" d="M440.27,151.86l-.68-.77C439.35,151.54,439.87,151.38,440.27,151.86Z"/><polygon class="cls-3" points="440.42 159.19 441.2 159.3 440.7 158.48 440.42 159.19"/><polygon class="cls-3" points="433.14 156.16 433.19 155.91 432.87 156.75 433.14 156.16"/><path class="cls-3" d="M401.84,188l1,.78C402.91,188.37,402,187.32,401.84,188Z"/><path class="cls-3" d="M389.12,202.51c-.59-.3-1.26-.2-1.06.47C388.43,202.74,389.08,202.78,389.12,202.51Z"/><polygon class="cls-3" points="346.81 241.92 346.79 241.34 346.52 242.11 346.81 241.92"/><path class="cls-2" d="M462.91,318.43h-.32a5,5,0,0,1-4.68-5.31L470,120.45a5,5,0,1,1,10,.63l-12.1,192.66A5,5,0,0,1,462.91,318.43Z"/><path class="cls-2" d="M283.25,148.8a5,5,0,0,1-.62-10l191.53-24.15a5,5,0,0,1,1.25,9.93L283.88,148.77Z"/></g></svg>